<?xml version="1.0" encoding="UTF-8" standalone="no"?>
<svg
   width="1250"
   height="837.39948"
   viewBox="0 0 330.72915 221.56195"
   version="1.1"
   id="svg2042"
   xmlns="http://www.w3.org/2000/svg"
   xmlns:svg="http://www.w3.org/2000/svg"
   xmlns:rdf="http://www.w3.org/1999/02/22-rdf-syntax-ns#"
   xmlns:cc="http://creativecommons.org/ns#"
   xmlns:dc="http://purl.org/dc/elements/1.1/">
  <title
     id="title2211">NINA Notfall-Informations- und Nachrichten-App </title>
  <defs
     id="defs2039">
    <clipPath
       id="clipPath712">
      <path
         d="m 180.636,523.59 h 102.829 v 61.367 H 180.636 Z"
         id="path710" />
    </clipPath>
  </defs>
  <g
     id="layer1"
     transform="matrix(2.5,0,0,2.5,-92.769272,-80.206289)">
    <g
       id="g706"
       transform="matrix(2.3515383,0,0,-2.3515383,-447.78184,1382.3779)">
      <g
         id="g708"
         clip-path="url(#clipPath712)">
        <g
           id="g714"
           transform="translate(237.1448,566.6299)">
          <path
             d="M 0,0 C 0,2.968 -1.211,5.652 -3.164,7.588 L -3.92,6.833 C -2.159,5.09 -1.068,2.673 -1.068,0 c 0,-2.659 -1.08,-5.066 -2.824,-6.807 l 0.755,-0.755 C -1.199,-5.628 0,-2.954 0,0 m -2.137,0 c 0,2.378 -0.971,4.528 -2.538,6.077 L -5.431,5.322 C -4.057,3.965 -3.205,2.082 -3.205,0 c 0,-2.069 -0.841,-3.942 -2.198,-5.296 l 0.755,-0.755 c 1.551,1.547 2.511,3.687 2.511,6.051 m -2.137,0 c 0,1.787 -0.733,3.402 -1.913,4.565 L -6.942,3.81 c 0.986,-0.97 1.6,-2.318 1.6,-3.81 0,-1.479 -0.602,-2.817 -1.573,-3.785 l 0.756,-0.755 c 1.164,1.16 1.885,2.766 1.885,4.54"
             style="fill:#ee7100;fill-opacity:1;fill-rule:nonzero;stroke:none"
             id="path716" />
        </g>
        <g
           id="g718"
           transform="translate(215.7943,566.6299)">
          <path
             d="M 0,0 C 0,2.968 1.211,5.652 3.164,7.588 L 3.92,6.833 C 2.159,5.09 1.068,2.673 1.068,0 c 0,-2.659 1.08,-5.066 2.824,-6.807 L 3.137,-7.562 C 1.199,-5.628 0,-2.954 0,0 m 2.137,0 c 0,2.378 0.971,4.528 2.538,6.077 L 5.431,5.322 C 4.057,3.965 3.205,2.082 3.205,0 c 0,-2.069 0.841,-3.942 2.199,-5.296 L 4.648,-6.051 C 3.097,-4.504 2.137,-2.364 2.137,0 m 2.137,0 c 0,1.787 0.733,3.402 1.913,4.565 L 6.942,3.81 C 5.956,2.84 5.342,1.492 5.342,0 c 0,-1.479 0.602,-2.817 1.573,-3.785 L 6.159,-4.54 C 4.995,-3.38 4.274,-1.774 4.274,0"
             style="fill:#ee7100;fill-opacity:1;fill-rule:nonzero;stroke:none"
             id="path720" />
        </g>
        <g
           id="g722"
           transform="translate(246.0555,555.9383)">
          <path
             d="m 0,0 c 0.588,0.136 0.769,0.43 0.769,0.792 0,0.113 -0.023,0.294 -0.023,0.294 H -4.116 C -4.229,0.837 -4.365,0.543 -4.365,0.339 c 0,-0.135 0.09,-0.203 0.317,-0.248 l 1.311,-0.317 V -9.363 H -2.782 L -9.748,1.086 h -4.455 c -0.091,-0.249 -0.249,-0.543 -0.249,-0.747 0,-0.135 0.09,-0.203 0.317,-0.248 l 1.334,-0.317 v -12.937 l -0.905,-0.226 c -0.588,-0.158 -0.769,-0.475 -0.769,-0.837 0,-0.113 0.023,-0.294 0.023,-0.294 h 4.976 c 0.09,0.272 0.248,0.565 0.248,0.769 0,0.136 -0.068,0.204 -0.316,0.271 l -1.493,0.317 v 10.856 h 0.045 l 8.165,-12.213 h 1.854 V -0.226 Z M 9.776,1.244 7.696,1.04 2.245,-13.185 1.431,-13.389 c -0.588,-0.136 -0.769,-0.475 -0.769,-0.837 0,-0.113 0.023,-0.294 0.023,-0.294 h 5.247 c 0.09,0.204 0.249,0.543 0.249,0.746 0,0.136 -0.068,0.227 -0.317,0.272 l -1.742,0.294 1.357,3.89 h 5.067 l 1.289,-3.845 -0.769,-0.226 c -0.588,-0.158 -0.769,-0.475 -0.769,-0.837 0,-0.113 0.022,-0.294 0.022,-0.294 h 5.835 c 0.114,0.272 0.249,0.565 0.249,0.769 0,0.136 -0.068,0.204 -0.316,0.271 l -1.063,0.249 z M 8.08,-2.036 10.048,-7.848 H 5.977 l 2.058,5.812 z"
             style="fill:#ee7100;fill-opacity:1;fill-rule:nonzero;stroke:none"
             id="path724" />
        </g>
        <g
           id="g726"
           transform="translate(228.8899,555.9383)">
          <path
             d="m 0,0 c 0.588,0.136 0.769,0.43 0.769,0.792 0,0.113 -0.023,0.294 -0.023,0.294 H -5.405 C -5.496,0.837 -5.654,0.543 -5.654,0.339 c 0,-0.135 0.09,-0.203 0.316,-0.248 l 1.335,-0.317 v -12.937 l -0.905,-0.226 c -0.588,-0.158 -0.769,-0.475 -0.769,-0.837 0,-0.113 0.023,-0.294 0.023,-0.294 h 6.219 c 0.114,0.272 0.249,0.565 0.249,0.769 0,0.136 -0.068,0.204 -0.316,0.271 l -1.471,0.317 v 12.937 z"
             style="fill:#ee7100;fill-opacity:1;fill-rule:nonzero;stroke:none"
             id="path728" />
        </g>
        <g
           id="g730"
           transform="translate(220.6805,555.9383)">
          <path
             d="m 0,0 c 0.588,0.136 0.769,0.43 0.769,0.792 0,0.113 -0.023,0.294 -0.023,0.294 H -4.116 C -4.229,0.837 -4.365,0.543 -4.365,0.339 c 0,-0.135 0.09,-0.203 0.316,-0.248 l 1.312,-0.317 V -9.363 H -2.782 L -9.748,1.086 h -4.455 c -0.091,-0.249 -0.249,-0.543 -0.249,-0.747 0,-0.135 0.09,-0.203 0.317,-0.248 l 1.334,-0.317 v -12.937 l -0.905,-0.226 c -0.588,-0.158 -0.769,-0.475 -0.769,-0.837 0,-0.113 0.023,-0.294 0.023,-0.294 h 4.976 c 0.09,0.272 0.248,0.565 0.248,0.769 0,0.136 -0.068,0.204 -0.316,0.271 l -1.493,0.317 v 10.856 h 0.045 l 8.165,-12.213 h 1.854 v 14.294 z"
             style="fill:#ee7100;fill-opacity:1;fill-rule:nonzero;stroke:none"
             id="path732" />
        </g>
        <g
           id="g734"
           transform="translate(230.7436,566.6303)">
          <path
             d="m 0,0 c 0,-2.36 -1.914,-4.274 -4.274,-4.274 -2.36,0 -4.274,1.914 -4.274,4.274 0,2.361 1.914,4.274 4.274,4.274 C -1.914,4.274 0,2.361 0,0"
             style="fill:#ee7100;fill-opacity:1;fill-rule:nonzero;stroke:none"
             id="path736" />
        </g>
        <g
           id="g738"
           transform="translate(223.3914,564.8235)">
          <path
             d="M 0,0 3.076,5.343 6.152,0 Z"
             style="fill:#0f3f93;fill-opacity:1;fill-rule:nonzero;stroke:none"
             id="path740" />
        </g>
        <g
           id="g742"
           transform="translate(208.055,539.0159)">
          <path
             d="M 0,0 C 0.076,0.018 0.1,0.053 0.1,0.1 0.1,0.115 0.097,0.132 0.097,0.132 H -0.518 C -0.533,0.106 -0.55,0.071 -0.55,0.044 c 0,-0.018 0.012,-0.026 0.041,-0.032 l 0.176,-0.041 V -1.336 H -0.338 L -1.3,0.132 H -1.818 C -1.83,0.106 -1.851,0.071 -1.851,0.044 c 0,-0.018 0.012,-0.026 0.042,-0.032 L -1.63,-0.029 V -1.73 l -0.124,-0.03 c -0.076,-0.017 -0.1,-0.058 -0.1,-0.105 0,-0.015 0.003,-0.033 0.003,-0.033 h 0.627 c 0.012,0.03 0.032,0.068 0.032,0.094 0,0.018 -0.008,0.027 -0.041,0.033 L -1.43,-1.73 v 1.486 h 0.006 l 1.086,-1.654 h 0.206 v 1.869 z m 0.98,-0.441 c -0.374,0 -0.727,-0.265 -0.727,-0.762 0,-0.495 0.303,-0.73 0.671,-0.73 0.359,0 0.715,0.25 0.715,0.759 0,0.512 -0.291,0.733 -0.659,0.733 M 0.945,-0.615 c 0.217,0 0.379,-0.182 0.379,-0.577 0,-0.394 -0.162,-0.564 -0.379,-0.564 -0.218,0 -0.377,0.176 -0.377,0.57 0,0.397 0.159,0.571 0.377,0.571 m 1.803,0.138 H 2.313 v 0.398 H 2.095 L 2.027,-0.477 1.883,-0.512 c -0.056,-0.012 -0.091,-0.044 -0.091,-0.1 0,-0.009 0.003,-0.026 0.003,-0.026 h 0.221 v -0.913 c 0,-0.226 0.105,-0.382 0.373,-0.382 0.268,0 0.371,0.138 0.371,0.168 0,0.029 -0.012,0.073 -0.026,0.097 -0.024,-0.021 -0.118,-0.071 -0.233,-0.071 -0.147,0 -0.188,0.109 -0.188,0.241 v 0.86 h 0.403 z m 1.018,0 H 3.375 c 0,0 -0.006,0.189 -0.006,0.28 0,0.174 0.044,0.244 0.171,0.244 0.091,0 0.167,-0.056 0.194,-0.085 0.044,0.023 0.088,0.064 0.088,0.138 0,0.091 -0.059,0.156 -0.206,0.156 -0.253,0 -0.541,-0.23 -0.541,-0.703 v -0.03 l -0.13,-0.035 c -0.056,-0.015 -0.091,-0.044 -0.091,-0.1 0,-0.009 0.003,-0.026 0.003,-0.026 h 0.218 v -1.101 l -0.1,-0.035 C 2.919,-1.795 2.883,-1.818 2.883,-1.871 c 0,-0.009 0.003,-0.027 0.003,-0.027 h 0.701 c 0.009,0.009 0.029,0.053 0.029,0.083 0,0.023 -0.012,0.032 -0.041,0.038 l -0.2,0.038 v 1.101 H 3.734 Z M 4.94,-0.95 c 0,0.332 -0.15,0.509 -0.474,0.509 -0.273,0 -0.515,-0.139 -0.515,-0.321 0,-0.091 0.056,-0.138 0.157,-0.138 0.023,0 0.067,0.003 0.067,0.003 0.015,0.1 0.038,0.203 0.065,0.259 0.023,0.008 0.082,0.029 0.15,0.029 0.182,0 0.253,-0.106 0.253,-0.374 V -1.115 H 4.566 c -0.329,0 -0.673,-0.118 -0.673,-0.433 0,-0.232 0.159,-0.385 0.382,-0.385 0.244,0 0.353,0.156 0.386,0.212 h 0.005 c 0.027,-0.147 0.112,-0.206 0.248,-0.206 0.191,0 0.267,0.115 0.267,0.153 0,0.026 -0.02,0.068 -0.035,0.088 -0.009,-0.015 -0.044,-0.05 -0.112,-0.05 -0.05,0 -0.094,0.035 -0.094,0.153 z M 4.643,-1.259 v -0.336 c -0.038,-0.047 -0.13,-0.126 -0.25,-0.126 -0.121,0 -0.191,0.082 -0.191,0.206 0,0.156 0.135,0.241 0.373,0.253 z M 5.755,0.238 5.355,0.2 C 5.284,0.194 5.246,0.159 5.246,0.109 5.246,0.097 5.249,0.076 5.249,0.076 L 5.458,0.047 V -1.739 L 5.355,-1.774 C 5.299,-1.792 5.264,-1.818 5.264,-1.871 c 0,-0.009 0.003,-0.027 0.003,-0.027 h 0.671 c 0.008,0.009 0.029,0.053 0.029,0.083 0,0.023 -0.012,0.032 -0.041,0.038 l -0.171,0.038 z m 0.844,0 L 6.199,0.2 C 6.129,0.194 6.091,0.159 6.091,0.109 6.091,0.097 6.093,0.076 6.093,0.076 L 6.302,0.047 V -1.739 L 6.199,-1.774 C 6.143,-1.792 6.108,-1.818 6.108,-1.871 c 0,-0.009 0.003,-0.027 0.003,-0.027 h 0.671 c 0.009,0.009 0.029,0.053 0.029,0.083 0,0.023 -0.011,0.032 -0.041,0.038 l -0.171,0.038 z m 1.23,-1.144 H 7.023 V -1.091 H 7.829 Z M 8.75,0 c 0.077,0.018 0.1,0.053 0.1,0.1 0,0.015 -0.003,0.032 -0.003,0.032 H 8.112 C 8.1,0.106 8.079,0.071 8.079,0.044 8.079,0.026 8.091,0.018 8.121,0.012 L 8.3,-0.029 V -1.73 L 8.177,-1.76 C 8.1,-1.777 8.076,-1.818 8.076,-1.865 c 0,-0.015 0.003,-0.033 0.003,-0.033 h 0.745 c 0.012,0.03 0.032,0.068 0.032,0.094 0,0.018 -0.009,0.027 -0.041,0.033 L 8.618,-1.73 v 1.701 z m 1.721,-0.959 c 0,0.332 -0.158,0.518 -0.447,0.518 -0.27,0 -0.403,-0.139 -0.482,-0.224 H 9.533 L 9.551,-0.459 9.15,-0.497 C 9.08,-0.503 9.041,-0.538 9.041,-0.589 9.041,-0.6 9.044,-0.618 9.044,-0.618 L 9.253,-0.65 V -1.739 L 9.15,-1.774 C 9.095,-1.795 9.059,-1.818 9.059,-1.871 c 0,-0.009 0.003,-0.027 0.003,-0.027 H 9.73 c 0.006,0.009 0.03,0.053 0.03,0.083 0,0.023 -0.012,0.032 -0.042,0.038 l -0.167,0.038 v 0.942 c 0.061,0.05 0.17,0.129 0.338,0.129 0.144,0 0.285,-0.076 0.285,-0.326 v -0.745 l -0.097,-0.035 c -0.056,-0.018 -0.091,-0.044 -0.091,-0.097 0,-0.009 0.003,-0.027 0.003,-0.027 h 0.668 c 0.006,0.009 0.029,0.053 0.029,0.083 0,0.023 -0.011,0.032 -0.041,0.038 l -0.174,0.038 z m 1.227,0.482 h -0.391 c 0,0 -0.006,0.189 -0.006,0.28 0,0.174 0.044,0.244 0.171,0.244 0.091,0 0.168,-0.056 0.194,-0.085 0.044,0.023 0.088,0.064 0.088,0.138 0,0.091 -0.059,0.156 -0.206,0.156 -0.253,0 -0.541,-0.23 -0.541,-0.703 v -0.03 l -0.13,-0.035 c -0.055,-0.015 -0.091,-0.044 -0.091,-0.1 0,-0.009 0.003,-0.026 0.003,-0.026 h 0.218 v -1.101 l -0.1,-0.035 c -0.056,-0.021 -0.091,-0.044 -0.091,-0.097 0,-0.009 0.003,-0.027 0.003,-0.027 h 0.7 c 0.009,0.009 0.029,0.053 0.029,0.083 0,0.023 -0.011,0.032 -0.041,0.038 l -0.2,0.038 v 1.101 h 0.359 z m 0.824,0.036 c -0.374,0 -0.727,-0.265 -0.727,-0.762 0,-0.495 0.303,-0.73 0.671,-0.73 0.359,0 0.715,0.25 0.715,0.759 0,0.512 -0.291,0.733 -0.659,0.733 m -0.035,-0.174 c 0.218,0 0.379,-0.182 0.379,-0.577 0,-0.394 -0.161,-0.564 -0.379,-0.564 -0.218,0 -0.377,0.176 -0.377,0.57 0,0.397 0.159,0.571 0.377,0.571 m 1.394,0.156 -0.4,-0.038 c -0.07,-0.006 -0.108,-0.041 -0.108,-0.092 0,-0.011 0.002,-0.029 0.002,-0.029 l 0.209,-0.032 v -1.089 l -0.103,-0.035 c -0.056,-0.021 -0.091,-0.044 -0.091,-0.097 0,-0.009 0.003,-0.027 0.003,-0.027 h 0.712 c 0.006,0.009 0.03,0.053 0.03,0.083 0,0.023 -0.012,0.032 -0.042,0.038 l -0.212,0.038 v 0.886 c 0.062,0.085 0.145,0.15 0.306,0.15 0.101,0 0.174,-0.033 0.198,-0.044 0.023,0.029 0.053,0.085 0.053,0.15 0,0.091 -0.065,0.156 -0.203,0.156 -0.192,0 -0.301,-0.171 -0.362,-0.271 h -0.009 z m 2.958,-0.5 c 0,0.338 -0.171,0.518 -0.454,0.518 -0.265,0 -0.42,-0.15 -0.5,-0.239 -0.068,0.156 -0.2,0.239 -0.379,0.239 -0.259,0 -0.404,-0.142 -0.465,-0.209 h -0.009 l 0.018,0.191 -0.401,-0.038 c -0.07,-0.006 -0.109,-0.041 -0.109,-0.092 0,-0.011 0.004,-0.029 0.004,-0.029 l 0.208,-0.032 v -1.089 l -0.103,-0.035 c -0.055,-0.021 -0.091,-0.044 -0.091,-0.097 0,-0.009 0.003,-0.027 0.003,-0.027 h 0.668 c 0.006,0.009 0.03,0.053 0.03,0.083 0,0.023 -0.012,0.032 -0.042,0.038 l -0.167,0.038 v 0.948 c 0.067,0.055 0.164,0.123 0.329,0.123 0.138,0 0.262,-0.07 0.262,-0.326 v -0.745 l -0.097,-0.035 c -0.056,-0.018 -0.091,-0.044 -0.091,-0.097 0,-0.009 0.003,-0.027 0.003,-0.027 h 0.668 c 0.008,0.009 0.029,0.053 0.029,0.083 0,0.023 -0.012,0.032 -0.041,0.038 l -0.171,0.038 v 0.78 c 0,0.056 -0.006,0.106 -0.015,0.153 0.068,0.062 0.168,0.138 0.347,0.138 0.139,0 0.265,-0.07 0.265,-0.326 v -0.745 l -0.097,-0.035 c -0.056,-0.018 -0.091,-0.044 -0.091,-0.097 0,-0.009 0.003,-0.027 0.003,-0.027 h 0.665 c 0.009,0.009 0.029,0.053 0.029,0.083 0,0.023 -0.011,0.032 -0.041,0.038 l -0.167,0.038 z m 1.391,0.009 c 0,0.332 -0.15,0.509 -0.474,0.509 -0.273,0 -0.514,-0.139 -0.514,-0.321 0,-0.091 0.055,-0.138 0.155,-0.138 0.024,0 0.068,0.003 0.068,0.003 0.015,0.1 0.039,0.203 0.065,0.259 0.023,0.008 0.082,0.029 0.15,0.029 0.182,0 0.253,-0.106 0.253,-0.374 v -0.132 h -0.076 c -0.33,0 -0.674,-0.118 -0.674,-0.433 0,-0.232 0.158,-0.385 0.382,-0.385 0.244,0 0.353,0.156 0.386,0.212 h 0.006 c 0.026,-0.147 0.111,-0.206 0.247,-0.206 0.191,0 0.267,0.115 0.267,0.153 0,0.026 -0.02,0.068 -0.035,0.088 -0.009,-0.015 -0.044,-0.05 -0.112,-0.05 -0.05,0 -0.094,0.035 -0.094,0.153 z m -0.297,-0.309 v -0.336 c -0.038,-0.047 -0.129,-0.126 -0.25,-0.126 -0.121,0 -0.191,0.082 -0.191,0.206 0,0.156 0.135,0.241 0.373,0.253 z m 1.539,0.782 h -0.436 v 0.398 h -0.217 l -0.068,-0.398 -0.144,-0.035 c -0.056,-0.012 -0.091,-0.044 -0.091,-0.1 0,-0.009 0.002,-0.026 0.002,-0.026 h 0.221 v -0.913 c 0,-0.226 0.106,-0.382 0.374,-0.382 0.268,0 0.37,0.138 0.37,0.168 0,0.029 -0.011,0.073 -0.026,0.097 -0.023,-0.021 -0.118,-0.071 -0.232,-0.071 -0.147,0 -0.189,0.109 -0.189,0.241 v 0.86 h 0.403 z m 0.621,0.018 -0.401,-0.038 c -0.07,-0.006 -0.108,-0.041 -0.108,-0.092 0,-0.011 0.002,-0.029 0.002,-0.029 l 0.209,-0.032 v -1.089 l -0.103,-0.035 c -0.056,-0.021 -0.091,-0.044 -0.091,-0.097 0,-0.009 0.003,-0.027 0.003,-0.027 h 0.674 c 0.006,0.009 0.029,0.053 0.029,0.083 0,0.023 -0.011,0.032 -0.041,0.038 l -0.173,0.038 z m 0.044,0.48 c 0,0.111 -0.088,0.188 -0.194,0.188 -0.109,0 -0.192,-0.077 -0.192,-0.188 0,-0.115 0.083,-0.189 0.192,-0.189 0.106,0 0.194,0.074 0.194,0.189 m 1.056,-0.462 c -0.374,0 -0.727,-0.265 -0.727,-0.762 0,-0.495 0.303,-0.73 0.671,-0.73 0.359,0 0.715,0.25 0.715,0.759 0,0.512 -0.291,0.733 -0.659,0.733 m -0.035,-0.174 c 0.217,0 0.379,-0.182 0.379,-0.577 0,-0.394 -0.162,-0.564 -0.379,-0.564 -0.218,0 -0.377,0.176 -0.377,0.57 0,0.397 0.159,0.571 0.377,0.571 m 2.315,-0.344 c 0,0.332 -0.159,0.518 -0.447,0.518 -0.271,0 -0.403,-0.139 -0.483,-0.224 h -0.008 l 0.017,0.206 -0.4,-0.038 c -0.07,-0.006 -0.109,-0.041 -0.109,-0.092 0,-0.011 0.003,-0.029 0.003,-0.029 l 0.209,-0.032 v -1.089 l -0.103,-0.035 c -0.056,-0.021 -0.091,-0.044 -0.091,-0.097 0,-0.009 0.003,-0.027 0.003,-0.027 h 0.668 c 0.006,0.009 0.029,0.053 0.029,0.083 0,0.023 -0.012,0.032 -0.041,0.038 l -0.168,0.038 v 0.942 c 0.062,0.05 0.171,0.129 0.339,0.129 0.144,0 0.285,-0.076 0.285,-0.326 v -0.745 l -0.097,-0.035 c -0.056,-0.018 -0.091,-0.044 -0.091,-0.097 0,-0.009 0.003,-0.027 0.003,-0.027 h 0.668 c 0.005,0.009 0.029,0.053 0.029,0.083 0,0.023 -0.012,0.032 -0.041,0.038 l -0.174,0.038 z m 1.074,0.079 c 0,0 0.021,-0.003 0.036,-0.003 0.105,0 0.126,0.068 0.126,0.171 0,0.059 -0.006,0.121 -0.012,0.162 -0.053,0.05 -0.173,0.109 -0.344,0.109 -0.282,0 -0.483,-0.153 -0.483,-0.383 0,-0.253 0.18,-0.368 0.359,-0.482 0.133,-0.083 0.274,-0.153 0.274,-0.28 0,-0.123 -0.091,-0.179 -0.235,-0.179 -0.086,0 -0.171,0.038 -0.201,0.059 l -0.061,0.25 c 0,0 -0.024,0.003 -0.039,0.003 -0.088,0 -0.12,-0.047 -0.12,-0.165 0,-0.077 0.009,-0.153 0.02,-0.227 0.062,-0.038 0.209,-0.088 0.374,-0.088 0.324,0 0.524,0.182 0.524,0.424 0,0.235 -0.188,0.35 -0.365,0.456 -0.141,0.082 -0.28,0.159 -0.28,0.288 0,0.124 0.1,0.165 0.198,0.165 0.088,0 0.161,-0.036 0.194,-0.059 z m 1.306,-0.026 h -0.806 v -0.185 h 0.806 z m 2.14,0.447 -0.401,-0.038 c -0.07,-0.006 -0.109,-0.041 -0.109,-0.092 0,-0.011 0.003,-0.029 0.003,-0.029 l 0.209,-0.032 v -0.924 c -0.067,-0.077 -0.167,-0.141 -0.317,-0.141 -0.13,0 -0.271,0.062 -0.271,0.329 v 0.927 l -0.4,-0.038 c -0.071,-0.006 -0.109,-0.041 -0.109,-0.092 0,-0.011 0.003,-0.029 0.003,-0.029 L 26.81,-0.65 v -0.751 c 0,-0.347 0.147,-0.532 0.462,-0.532 0.259,0 0.388,0.15 0.435,0.212 h 0.006 v -0.194 l 0.388,0.035 c 0.071,0.006 0.109,0.041 0.109,0.094 0,0.012 -0.003,0.024 -0.003,0.024 l -0.214,0.029 z m 1.771,-0.5 c 0,0.332 -0.159,0.518 -0.447,0.518 -0.271,0 -0.404,-0.139 -0.483,-0.224 h -0.009 l 0.018,0.206 -0.4,-0.038 c -0.071,-0.006 -0.109,-0.041 -0.109,-0.092 0,-0.011 0.003,-0.029 0.003,-0.029 l 0.209,-0.032 v -1.089 l -0.103,-0.035 c -0.056,-0.021 -0.092,-0.044 -0.092,-0.097 0,-0.009 0.003,-0.027 0.003,-0.027 h 0.668 c 0.006,0.009 0.03,0.053 0.03,0.083 0,0.023 -0.012,0.032 -0.041,0.038 l -0.168,0.038 v 0.942 c 0.062,0.05 0.171,0.129 0.338,0.129 0.144,0 0.286,-0.076 0.286,-0.326 v -0.745 l -0.098,-0.035 c -0.055,-0.018 -0.091,-0.044 -0.091,-0.097 0,-0.009 0.003,-0.027 0.003,-0.027 h 0.668 c 0.006,0.009 0.03,0.053 0.03,0.083 0,0.023 -0.012,0.032 -0.042,0.038 l -0.173,0.038 z m 1.63,1.197 -0.4,-0.038 C 30.923,0.194 30.885,0.159 30.885,0.109 c 0,-0.012 0.003,-0.033 0.003,-0.033 l 0.209,-0.029 v -0.515 c -0.05,0.012 -0.124,0.027 -0.209,0.027 -0.377,0 -0.759,-0.247 -0.759,-0.795 0,-0.512 0.27,-0.697 0.559,-0.697 0.229,0 0.353,0.118 0.417,0.209 h 0.009 v -0.191 l 0.389,0.035 c 0.07,0.006 0.109,0.041 0.109,0.094 0,0.012 -0.004,0.024 -0.004,0.024 l -0.214,0.029 z m -0.297,-1.824 c -0.039,-0.044 -0.13,-0.123 -0.301,-0.123 -0.197,0 -0.361,0.153 -0.361,0.532 0,0.388 0.176,0.559 0.415,0.559 0.123,0 0.202,-0.047 0.247,-0.088 z M 34.251,0 c 0.076,0.018 0.1,0.053 0.1,0.1 0,0.015 -0.003,0.032 -0.003,0.032 H 33.733 C 33.718,0.106 33.701,0.071 33.701,0.044 c 0,-0.018 0.011,-0.026 0.041,-0.032 l 0.176,-0.041 V -1.336 H 33.912 L 32.95,0.132 H 32.432 C 32.421,0.106 32.4,0.071 32.4,0.044 c 0,-0.018 0.012,-0.026 0.041,-0.032 l 0.18,-0.041 V -1.73 l -0.124,-0.03 c -0.076,-0.017 -0.1,-0.058 -0.1,-0.105 0,-0.015 0.003,-0.033 0.003,-0.033 h 0.627 c 0.011,0.03 0.032,0.068 0.032,0.094 0,0.018 -0.009,0.027 -0.041,0.033 l -0.197,0.041 v 1.486 h 0.006 l 1.085,-1.654 h 0.206 v 1.869 z m 1.285,-0.95 c 0,0.332 -0.15,0.509 -0.473,0.509 -0.274,0 -0.515,-0.139 -0.515,-0.321 0,-0.091 0.056,-0.138 0.156,-0.138 0.023,0 0.068,0.003 0.068,0.003 0.014,0.1 0.038,0.203 0.064,0.259 0.024,0.008 0.083,0.029 0.15,0.029 0.183,0 0.253,-0.106 0.253,-0.374 v -0.132 h -0.076 c -0.33,0 -0.674,-0.118 -0.674,-0.433 0,-0.232 0.159,-0.385 0.383,-0.385 0.244,0 0.353,0.156 0.385,0.212 h 0.006 c 0.026,-0.147 0.112,-0.206 0.247,-0.206 0.191,0 0.268,0.115 0.268,0.153 0,0.026 -0.021,0.068 -0.035,0.088 -0.009,-0.015 -0.045,-0.05 -0.112,-0.05 -0.05,0 -0.095,0.035 -0.095,0.153 z m -0.297,-0.309 v -0.336 c -0.038,-0.047 -0.129,-0.126 -0.25,-0.126 -0.12,0 -0.191,0.082 -0.191,0.206 0,0.156 0.135,0.241 0.374,0.253 z m 1.651,0.397 c 0.112,0.023 0.15,0.097 0.15,0.176 0,0.086 -0.082,0.245 -0.406,0.245 -0.397,0 -0.73,-0.268 -0.73,-0.765 0,-0.486 0.247,-0.727 0.63,-0.727 0.324,0 0.485,0.171 0.485,0.244 0,0.027 -0.02,0.074 -0.047,0.1 -0.047,-0.047 -0.153,-0.141 -0.335,-0.141 -0.277,0 -0.421,0.215 -0.421,0.585 0,0.386 0.171,0.527 0.368,0.527 0.194,0 0.262,-0.141 0.306,-0.244 m 0.785,1.1 L 37.272,0.2 c -0.07,-0.006 -0.108,-0.041 -0.108,-0.091 0,-0.012 0.002,-0.033 0.002,-0.033 l 0.209,-0.029 v -1.786 l -0.103,-0.035 c -0.056,-0.018 -0.091,-0.044 -0.091,-0.097 0,-0.009 0.003,-0.027 0.003,-0.027 h 0.668 c 0.009,0.009 0.029,0.053 0.029,0.083 0,0.023 -0.011,0.032 -0.041,0.038 l -0.165,0.038 v 0.936 c 0.056,0.056 0.153,0.135 0.336,0.135 0.15,0 0.285,-0.076 0.285,-0.326 v -0.745 l -0.097,-0.035 c -0.056,-0.018 -0.091,-0.044 -0.091,-0.097 0,-0.009 0.003,-0.027 0.003,-0.027 h 0.668 c 0.006,0.009 0.029,0.053 0.029,0.083 0,0.023 -0.012,0.032 -0.041,0.038 l -0.171,0.038 v 0.78 c 0,0.344 -0.167,0.518 -0.461,0.518 -0.254,0 -0.395,-0.142 -0.454,-0.212 h -0.006 z m 1.748,-0.697 -0.4,-0.038 c -0.071,-0.006 -0.109,-0.041 -0.109,-0.092 0,-0.011 0.003,-0.029 0.003,-0.029 l 0.209,-0.032 v -1.089 l -0.103,-0.035 c -0.056,-0.021 -0.091,-0.044 -0.091,-0.097 0,-0.009 0.003,-0.027 0.003,-0.027 h 0.712 c 0.006,0.009 0.029,0.053 0.029,0.083 0,0.023 -0.012,0.032 -0.041,0.038 l -0.212,0.038 v 0.886 c 0.062,0.085 0.144,0.15 0.306,0.15 0.1,0 0.174,-0.033 0.197,-0.044 0.024,0.029 0.053,0.085 0.053,0.15 0,0.091 -0.065,0.156 -0.203,0.156 -0.191,0 -0.3,-0.171 -0.362,-0.271 h -0.008 z m 1.168,0 -0.4,-0.038 c -0.071,-0.006 -0.109,-0.041 -0.109,-0.092 0,-0.011 0.003,-0.029 0.003,-0.029 L 40.294,-0.65 V -1.739 L 40.191,-1.774 C 40.135,-1.795 40.1,-1.818 40.1,-1.871 c 0,-0.009 0.003,-0.027 0.003,-0.027 h 0.674 c 0.005,0.009 0.029,0.053 0.029,0.083 0,0.023 -0.012,0.032 -0.041,0.038 l -0.174,0.038 z m 0.044,0.48 c 0,0.111 -0.088,0.188 -0.194,0.188 -0.109,0 -0.191,-0.077 -0.191,-0.188 0,-0.115 0.082,-0.189 0.191,-0.189 0.106,0 0.194,0.074 0.194,0.189 m 1.318,-0.883 c 0.112,0.023 0.151,0.097 0.151,0.176 0,0.086 -0.083,0.245 -0.406,0.245 -0.398,0 -0.73,-0.268 -0.73,-0.765 0,-0.486 0.247,-0.727 0.629,-0.727 0.324,0 0.486,0.171 0.486,0.244 0,0.027 -0.021,0.074 -0.047,0.1 -0.047,-0.047 -0.153,-0.141 -0.336,-0.141 -0.276,0 -0.42,0.215 -0.42,0.585 0,0.386 0.17,0.527 0.367,0.527 0.195,0 0.262,-0.141 0.306,-0.244 m 0.786,1.1 L 42.336,0.2 C 42.265,0.194 42.227,0.159 42.227,0.109 c 0,-0.012 0.003,-0.033 0.003,-0.033 l 0.209,-0.029 v -1.786 l -0.103,-0.035 c -0.056,-0.018 -0.091,-0.044 -0.091,-0.097 0,-0.009 0.003,-0.027 0.003,-0.027 h 0.668 c 0.008,0.009 0.029,0.053 0.029,0.083 0,0.023 -0.012,0.032 -0.041,0.038 l -0.165,0.038 v 0.936 c 0.056,0.056 0.153,0.135 0.335,0.135 0.151,0 0.286,-0.076 0.286,-0.326 v -0.745 l -0.097,-0.035 c -0.056,-0.018 -0.091,-0.044 -0.091,-0.097 0,-0.009 0.002,-0.027 0.002,-0.027 h 0.668 c 0.006,0.009 0.03,0.053 0.03,0.083 0,0.023 -0.012,0.032 -0.041,0.038 l -0.171,0.038 v 0.78 c 0,0.344 -0.168,0.518 -0.462,0.518 -0.253,0 -0.394,-0.142 -0.453,-0.212 h -0.006 z m 2.157,-0.715 H 44.46 v 0.398 h -0.217 l -0.068,-0.398 -0.144,-0.035 c -0.056,-0.012 -0.091,-0.044 -0.091,-0.1 0,-0.009 0.002,-0.026 0.002,-0.026 h 0.221 v -0.913 c 0,-0.226 0.106,-0.382 0.374,-0.382 0.268,0 0.37,0.138 0.37,0.168 0,0.029 -0.011,0.073 -0.026,0.097 -0.024,-0.021 -0.118,-0.071 -0.232,-0.071 -0.148,0 -0.189,0.109 -0.189,0.241 v 0.86 h 0.403 z m 1.265,-0.715 c 0.02,0.074 0.035,0.177 0.035,0.254 0,0.294 -0.168,0.497 -0.5,0.497 -0.335,0 -0.644,-0.262 -0.644,-0.774 0,-0.512 0.27,-0.718 0.632,-0.718 0.327,0 0.521,0.168 0.521,0.241 0,0.027 -0.015,0.077 -0.044,0.1 -0.074,-0.061 -0.18,-0.135 -0.368,-0.135 -0.253,0 -0.426,0.171 -0.43,0.535 z m -0.794,0.156 c 0.02,0.289 0.123,0.427 0.297,0.427 0.17,0 0.229,-0.138 0.229,-0.3 0,-0.05 -0.009,-0.1 -0.015,-0.127 z m 2.462,0.077 c 0,0.332 -0.159,0.518 -0.447,0.518 -0.271,0 -0.403,-0.139 -0.483,-0.224 h -0.008 l 0.017,0.206 -0.4,-0.038 c -0.071,-0.006 -0.109,-0.041 -0.109,-0.092 0,-0.011 0.003,-0.029 0.003,-0.029 l 0.209,-0.032 v -1.089 l -0.103,-0.035 c -0.056,-0.021 -0.091,-0.044 -0.091,-0.097 0,-0.009 0.003,-0.027 0.003,-0.027 h 0.668 c 0.006,0.009 0.029,0.053 0.029,0.083 0,0.023 -0.012,0.032 -0.041,0.038 l -0.168,0.038 v 0.942 c 0.062,0.05 0.171,0.129 0.339,0.129 0.144,0 0.285,-0.076 0.285,-0.326 v -0.745 l -0.097,-0.035 c -0.056,-0.018 -0.091,-0.044 -0.091,-0.097 0,-0.009 0.003,-0.027 0.003,-0.027 h 0.668 c 0.005,0.009 0.029,0.053 0.029,0.083 0,0.023 -0.012,0.032 -0.041,0.038 l -0.174,0.038 z m 1.221,0.053 h -0.806 v -0.185 h 0.806 z m 1.183,1.062 -0.224,-0.026 -0.712,-1.866 -0.091,-0.02 c -0.077,-0.018 -0.1,-0.062 -0.1,-0.109 0,-0.015 0.003,-0.033 0.003,-0.033 h 0.647 c 0.003,0.012 0.033,0.065 0.033,0.091 0,0.018 -0.009,0.03 -0.042,0.036 l -0.226,0.038 0.185,0.524 h 0.701 L 50.586,-1.73 50.48,-1.76 c -0.076,-0.02 -0.1,-0.058 -0.1,-0.105 0,-0.015 0.003,-0.033 0.003,-0.033 h 0.689 c 0.014,0.03 0.032,0.068 0.032,0.094 0,0.018 -0.009,0.024 -0.041,0.033 l -0.133,0.035 z m -0.168,-0.38 0.283,-0.815 h -0.58 l 0.291,0.815 z m 1.586,-0.235 -0.4,-0.038 c -0.071,-0.006 -0.109,-0.041 -0.109,-0.092 0,-0.011 0.003,-0.029 0.003,-0.029 L 51.354,-0.65 V -2.327 L 51.251,-2.363 C 51.195,-2.38 51.16,-2.407 51.16,-2.46 c 0,-0.009 0.003,-0.026 0.003,-0.026 h 0.67 c 0.009,0.009 0.03,0.053 0.03,0.082 0,0.024 -0.012,0.033 -0.041,0.038 l -0.171,0.039 v 0.432 c 0.056,-0.014 0.124,-0.026 0.209,-0.026 0.43,0 0.756,0.244 0.756,0.803 0,0.447 -0.235,0.677 -0.544,0.677 -0.239,0 -0.362,-0.124 -0.43,-0.209 h -0.009 z m 0,-0.321 c 0.059,0.053 0.147,0.115 0.289,0.115 0.205,0 0.367,-0.156 0.367,-0.494 0,-0.415 -0.159,-0.589 -0.415,-0.589 -0.109,0 -0.188,0.039 -0.241,0.077 z m 1.648,0.321 -0.4,-0.038 c -0.071,-0.006 -0.109,-0.041 -0.109,-0.092 0,-0.011 0.003,-0.029 0.003,-0.029 l 0.209,-0.032 v -1.677 l -0.103,-0.036 c -0.056,-0.017 -0.092,-0.044 -0.092,-0.097 0,-0.009 0.003,-0.026 0.003,-0.026 h 0.671 c 0.009,0.009 0.03,0.053 0.03,0.082 0,0.024 -0.012,0.033 -0.042,0.038 l -0.17,0.039 v 0.432 c 0.056,-0.014 0.123,-0.026 0.209,-0.026 0.429,0 0.756,0.244 0.756,0.803 0,0.447 -0.236,0.677 -0.544,0.677 -0.239,0 -0.362,-0.124 -0.43,-0.209 h -0.009 z m 0,-0.321 c 0.059,0.053 0.147,0.115 0.288,0.115 0.206,0 0.368,-0.156 0.368,-0.494 0,-0.415 -0.159,-0.589 -0.415,-0.589 -0.109,0 -0.188,0.039 -0.241,0.077 z"
             style="fill:#0f3f93;fill-opacity:1;fill-rule:nonzero;stroke:none"
             id="path744" />
        </g>
      </g>
    </g>
  </g>
  <metadata
     id="metadata2209">
    <rdf:RDF>
      <cc:Work
         rdf:about="">
        <dc:title>NINA Notfall-Informations- und Nachrichten-App </dc:title>
      </cc:Work>
    </rdf:RDF>
  </metadata>
</svg>
