<svg id="Ebene_1" data-name="Ebene 1" xmlns="http://www.w3.org/2000/svg" viewBox="0 0 104.24 60"><defs><style>.cls-1{fill:#f08600;}</style></defs><title>RRL_Logo_2017_x60</title><path class="cls-1" d="M30.06,45c0.5,2.81,9.1,0,10.66,1.11-1.93-1.4-8.16-1.34-11.26-4.51-5.7-5.83-4.43-10.06-4.65-11.39a16.83,16.83,0,0,0,3.34,5.17A14.71,14.71,0,0,0,36,39s-4.61-1.91-5.89-6.45c-3.1-11.07-7.72-9.46-10.42-10,2.15-.35,14.7-4.31,16.31,5.25C37.14,34.42,44.86,34,44.86,34a14.73,14.73,0,0,1-5.17-9.63C39,19.58,33.25,18,31.81,18.75c2.86-1.42,11.53-2.06,13.6,6.36,0.82,3.34,4.57,5,8,7.71,0-.17,0-0.34,0-0.51a20.12,20.12,0,1,0-13.79,19.1C36.3,50.51,31,50.17,30.06,45Z" transform="translate(-0.38)"/><path class="cls-1" d="M46.17,42.44L45,40H44.14v2.41H43v-6h2.37a1.83,1.83,0,0,1,2,1.85,1.63,1.63,0,0,1-1.1,1.59l1.35,2.61H46.17Zm-0.92-5H44.14V39h1.11A0.8,0.8,0,1,0,45.25,37.45Z" transform="translate(-0.38)"/><path class="cls-1" d="M52.12,42.44l-0.36-1.07H49.62l-0.37,1.07H48l2.2-6h0.93l2.21,6H52.12Zm-1.41-4.27-0.76,2.2h1.5Z" transform="translate(-0.38)"/><path class="cls-1" d="M56.4,42.49a2.1,2.1,0,0,1-2.23-2.12v-4h1.18v3.93a1.05,1.05,0,1,0,2.1,0V36.39h1.17v4A2.1,2.1,0,0,1,56.4,42.49Z" transform="translate(-0.38)"/><path class="cls-1" d="M62.14,42.49a2.23,2.23,0,0,1-1.63-.66,3.06,3.06,0,0,1-.59-2.41A3.06,3.06,0,0,1,60.51,37a2.23,2.23,0,0,1,1.63-.66,2.13,2.13,0,0,1,2.23,1.91h-1.2a1,1,0,0,0-1-.86,1,1,0,0,0-.76.31c-0.23.25-.3,0.54-0.3,1.71s0.07,1.45.3,1.71a1,1,0,0,0,.76.31,1,1,0,0,0,1-.86h1.2A2.14,2.14,0,0,1,62.14,42.49Z" transform="translate(-0.38)"/><path class="cls-1" d="M68.78,42.44V39.91h-2v2.53H65.55v-6h1.18v2.47h2V36.39H70v6H68.78Z" transform="translate(-0.38)"/><path class="cls-1" d="M75.84,42.44V38.92l-1.16,2.29h-0.8l-1.16-2.29v3.53H71.54v-6h1.16l1.58,3.27,1.57-3.27H77v6H75.84Z" transform="translate(-0.38)"/><path class="cls-1" d="M78.6,42.44v-6h4v1.05h-2.8v1.42h2.39v1.05H79.78v1.47h2.8v1.05h-4Z" transform="translate(-0.38)"/><path class="cls-1" d="M83.91,42.44v-6h1.18v5h2.74v1.05H83.91Z" transform="translate(-0.38)"/><path class="cls-1" d="M92.75,41.87a2.2,2.2,0,0,1-1.6.58H89v-6h2.18a2.2,2.2,0,0,1,1.6.58,3,3,0,0,1,.61,2.42A3.16,3.16,0,0,1,92.75,41.87Zm-0.82-4A1.05,1.05,0,0,0,91,37.45H90.15v3.94H91A1.05,1.05,0,0,0,91.92,41a2.68,2.68,0,0,0,.25-1.62A2.49,2.49,0,0,0,91.92,37.82Z" transform="translate(-0.38)"/><path class="cls-1" d="M94.73,42.44v-6h4v1.05h-2.8v1.42H98.3v1.05H95.91v1.47h2.8v1.05h-4Z" transform="translate(-0.38)"/><path class="cls-1" d="M103.25,42.44L102.07,40h-0.85v2.41H100v-6h2.37a1.83,1.83,0,0,1,2,1.85,1.63,1.63,0,0,1-1.1,1.59l1.35,2.61h-1.37Zm-0.92-5h-1.11V39h1.11A0.8,0.8,0,1,0,102.34,37.45Z" transform="translate(-0.38)"/><path class="cls-1" d="M46.17,51.22L45,48.81H44.14v2.41H43v-6h2.37a1.83,1.83,0,0,1,2,1.85,1.63,1.63,0,0,1-1.1,1.59l1.35,2.61H46.17Zm-0.92-5H44.14v1.6h1.11A0.8,0.8,0,1,0,45.25,46.23Z" transform="translate(-0.38)"/><path class="cls-1" d="M48.68,51.22v-6h4v1.05h-2.8v1.42h2.39V48.7H49.86v1.47h2.8v1.05h-4Z" transform="translate(-0.38)"/><path class="cls-1" d="M56.3,46.23v5H55.12v-5H53.54V45.17h4.34v1.05H56.3Z" transform="translate(-0.38)"/><path class="cls-1" d="M61.32,46.23v5H60.14v-5H58.56V45.17H62.9v1.05H61.32Z" transform="translate(-0.38)"/><path class="cls-1" d="M64,51.22v-6h4v1.05h-2.8v1.42H67.6V48.7H65.21v1.47H68v1.05H64Z" transform="translate(-0.38)"/><path class="cls-1" d="M72.92,51.22l-2.4-3.71v3.71H69.34v-6h1.05l2.4,3.7v-3.7H74v6H72.92Z" transform="translate(-0.38)"/><path class="cls-1" d="M43,60V54h1.18v5h2.74V60H43Z" transform="translate(-0.38)"/><path class="cls-1" d="M48,60V54h4V55h-2.8v1.42h2.39v1.05H49.19v1.47H52V60H48Z" transform="translate(-0.38)"/><path class="cls-1" d="M55.85,60H53.32V54h2.43a1.65,1.65,0,0,1,1.87,1.7,1.4,1.4,0,0,1-.75,1.25,1.41,1.41,0,0,1,.83,1.36A1.67,1.67,0,0,1,55.85,60Zm-0.2-5H54.5V56.4h1.16A0.7,0.7,0,1,0,55.66,55Zm0.08,2.46H54.5v1.49h1.23A0.74,0.74,0,1,0,55.73,57.46Z" transform="translate(-0.38)"/><path class="cls-1" d="M59.08,60V54h4V55h-2.8v1.42h2.39v1.05H60.26v1.47h2.8V60h-4Z" transform="translate(-0.38)"/><path class="cls-1" d="M68,60l-2.4-3.71V60H64.39V54h1.05l2.4,3.7V54H69v6H68Z" transform="translate(-0.38)"/><path class="cls-1" d="M2.91,33H0.38a33,33,0,0,1,33-33V2.53A30.52,30.52,0,0,0,2.91,33Z" transform="translate(-0.38)"/><path class="cls-1" d="M8.91,33H6.38a27,27,0,0,1,27-27V8.53A24.51,24.51,0,0,0,8.91,33Z" transform="translate(-0.38)"/></svg>