<?xml version="1.0" encoding="UTF-8"?> <svg xmlns="http://www.w3.org/2000/svg" xmlns:xlink="http://www.w3.org/1999/xlink" id="Ebene_2" viewBox="0 0 164.21 217.57"><defs><style>.cls-1{fill:none;}.cls-2{fill:#004b92;}.cls-3{clip-path:url(#clippath-1);}.cls-4{clip-path:url(#clippath-3);}.cls-5{clip-path:url(#clippath-2);}.cls-6{fill:#e3001f;}.cls-7{fill:#fff;}.cls-8{clip-path:url(#clippath);}</style><clipPath id="clippath"><rect class="cls-1" width="164.21" height="217.57"></rect></clipPath><clipPath id="clippath-1"><rect class="cls-1" width="164.21" height="217.57"></rect></clipPath><clipPath id="clippath-2"><rect class="cls-1" width="164.21" height="217.57"></rect></clipPath><clipPath id="clippath-3"><rect class="cls-1" width="164.21" height="217.57"></rect></clipPath></defs><g id="Ebene_2-2"><g class="cls-8"><path class="cls-7" d="M157.84,215.4H6.38c-2.32,0-4.21-1.88-4.21-4.21V72.81c0-1.21.52-2.36,1.43-3.16L79.22,3.21c1.59-1.39,3.96-1.4,5.55,0l75.84,66.44c.91.8,1.44,1.95,1.44,3.16v138.38c0,2.32-1.88,4.21-4.21,4.21"></path><path class="cls-2" d="M82,4.33c-.48,0-.96.17-1.35.5L5.03,71.27c-.44.39-.69.95-.69,1.53v138.39c0,1.12.92,2.04,2.04,2.04h151.46c1.12,0,2.04-.92,2.04-2.04V72.81c0-.59-.25-1.15-.69-1.54L83.34,4.84c-.38-.33-.86-.5-1.35-.5M157.84,217.57H6.38C2.86,217.57,0,214.71,0,211.2V72.81c0-1.83.79-3.58,2.17-4.79L77.79,1.58c2.4-2.11,6.01-2.1,8.41,0l75.84,66.44c1.38,1.21,2.17,2.96,2.17,4.79v138.38c0,3.52-2.86,6.38-6.38,6.38"></path><path class="cls-6" d="M66.56,61.41c.2-.33.69-.27.82.09.71,2.09,2.57,7.12,8.35,10.1.36.19.77-.18.61-.56-1.63-3.86-6.2-17.53,3.47-31.54,2.72-3.94,7.46-8.29,12.77-10.29.33-.12.63.24.45.54-.85,1.44-2.22,4.45-1.47,8,1.03,4.92,3.81,8.96,9.14,13.05,8.01,6.15,13.04,12.27,12.94,21.98,0,.38.45.57.72.29,2.5-2.55,3.02-6.83,3.15-9.17.03-.49.68-.65.93-.23,1.71,2.85,2.63,5.84,3.02,8.62,2.01,14.47-5.72,26.83-17.55,31.66,0,0-.98.3-2.63.64h-.13c-.28-.12-.43-.49-.19-.77,1.91-2.17,3.35-5.46,3.26-10.3-.24-12.65-10.97-17.61-14.16-18.8-.31-.12-.61.21-.45.51,2.9,5.73,2.59,10.94.71,13.74-.16.24-.54.13-.54-.16-.04-3.67-1.62-5.69-2.54-6.56-.19-.18-.49,0-.43.25.77,3.13-.44,6.25-2.1,7.97-3.39,3.5-3.68,6.46-3.1,9.26.35,1.71,1,3.04,1.82,4.1.22.28.06.65-.21.76h-.31c-.69-.19-1.38-.4-2.06-.64-9.7-3.5-16.89-12.18-18.38-23.12-.96-7.04.66-13.83,4.12-19.43"></path><path class="cls-2" d="M38.35,125.31c.84,1.55,2.51,2.89,4.03,2.89,1.3,0,1.85-.54,1.85-1.3,0-2.98-11.95-3.06-11.95-12.41,0-5.58,4.07-9.06,10.15-9.06,6.75,0,9.23,4.82,10.02,7.13l-6.92,3.1c-.59-1.22-1.3-2.68-3.31-2.68-1.01,0-1.59.54-1.59,1.34,0,3.27,12.03,3.1,12.03,11.95,0,5.62-3.73,9.6-10.53,9.6s-9.98-5.07-10.73-7.13l6.96-3.44Z"></path></g><polygon class="cls-2" points="60.53 113.28 54.53 113.28 54.53 105.98 74.95 105.98 74.95 113.28 68.87 113.28 68.87 135.33 60.53 135.33 60.53 113.28"></polygon><g class="cls-3"><path class="cls-6" d="M84.89,120.61c0,4.4,2.85,7.63,7.13,7.63s7.13-3.23,7.13-7.63-2.85-7.55-7.13-7.55-7.13,3.27-7.13,7.55M76.16,120.61c0-8.47,6.16-15.18,15.85-15.18s15.85,6.71,15.85,15.18-6.16,15.26-15.85,15.26-15.85-6.67-15.85-15.26"></path><path class="cls-2" d="M121.36,118.6c1.76,0,2.68-1.21,2.68-2.89s-1.01-2.73-2.6-2.73h-1.85v5.62h1.76ZM111.25,105.98h11.45c6.25,0,9.9,3.86,9.9,9.77s-3.86,9.85-9.77,9.85h-3.23v9.73h-8.34v-29.35Z"></path></g><polygon class="cls-2" points="32.61 140.67 40.96 140.67 40.96 151.7 47.01 151.7 47.01 140.67 55.36 140.67 55.36 170.03 47.01 170.03 47.01 159.04 40.96 159.04 40.96 170.03 32.61 170.03 32.61 140.67"></polygon><polygon class="cls-2" points="60.21 140.67 76.65 140.67 76.65 147.97 68.56 147.97 68.56 151.58 75.39 151.58 75.39 158.83 68.56 158.83 68.56 162.73 76.98 162.73 76.98 170.03 60.21 170.03 60.21 140.67"></polygon><g class="cls-5"><path class="cls-2" d="M90.82,152.87c1.89,0,2.89-1.13,2.89-2.64,0-1.63-1-2.56-2.89-2.56h-1.38v5.2h1.38ZM81.09,140.67h10.36c7.3,0,10.78,3.52,10.78,9.27,0,3.15-1.34,6.16-3.86,7.76l6.71,12.33h-9.18l-4.95-10.36h-1.51v10.36h-8.34v-29.35Z"></path><path class="cls-2" d="M116.97,162.98c4.28,0,7.17-2.56,7.17-7.63s-2.89-7.63-7.17-7.63h-1.05v15.26h1.05ZM107.58,140.67h9.56c9.43,0,15.68,5.49,15.68,14.68s-6.16,14.68-15.68,14.68h-9.56v-29.35Z"></path><path class="cls-2" d="M40.78,189.61c1.09,0,1.73-.91,1.73-1.73s-.57-1.7-1.64-1.7h-2.25v3.43h2.15ZM40.39,181.48c.97,0,1.49-.67,1.49-1.55s-.51-1.46-1.55-1.46h-1.7v3.01h1.76ZM32.62,173.43h8.23c4.46,0,7.19,2.06,7.19,5.77,0,1.94-.79,3.34-2.28,4.34,2.03.91,2.94,2.64,2.94,4.7,0,4.46-3.46,6.44-7.71,6.44h-8.38v-21.25Z"></path><path class="cls-2" d="M58.24,182.26c1.37,0,2.09-.82,2.09-1.91,0-1.18-.73-1.85-2.09-1.85h-1v3.76h1ZM51.19,173.43h7.5c5.28,0,7.8,2.55,7.8,6.71,0,2.28-.97,4.46-2.79,5.62l4.86,8.92h-6.65l-3.58-7.5h-1.09v7.5h-6.04v-21.25Z"></path></g><path class="cls-2" d="M79.33,179.69l-1.76,6.1h3.52l-1.76-6.1ZM76.14,190.61l-1.27,4.07h-6.07l7.34-21.24h6.37l7.34,21.24h-6.07l-1.27-4.07h-6.37Z"></path><polygon class="cls-2" points="91.81 173.43 97.97 173.43 104.8 185.48 104.8 173.43 110.75 173.43 110.75 194.68 104.74 194.68 97.73 182.81 97.73 194.68 91.81 194.68 91.81 173.43"></polygon><g class="cls-4"><path class="cls-2" d="M121.13,189.58c3.1,0,5.19-1.85,5.19-5.52s-2.09-5.52-5.19-5.52h-.76v11.05h.76ZM114.33,173.43h6.92c6.83,0,11.35,3.97,11.35,10.62s-4.46,10.62-11.35,10.62h-6.92v-21.25Z"></path></g></g></svg> 