<svg width="231" height="471" viewBox="0 0 231 471" fill="none" xmlns="http://www.w3.org/2000/svg">
<g clip-path="url(#clip0)">
<rect width="206.842" height="448.157" transform="translate(10.917 11.4912)" fill="white"/>
<g filter="url(#filter0_d)">
<rect x="10.917" y="31.0264" width="206.842" height="32.1754" fill="white"/>
</g>
<path d="M38.7316 27.5791H37.8717V23.4249L36.603 23.8585V23.13L38.6215 22.3873H38.7316V27.5791Z" fill="black"/>
<path d="M43.9021 25.4007C43.9021 26.1446 43.7623 26.7061 43.4828 27.0851C43.2056 27.4618 42.7827 27.6502 42.2142 27.6502C41.6551 27.6502 41.2334 27.4666 40.9491 27.0994C40.6672 26.7298 40.5226 26.1837 40.5155 25.4611V24.5656C40.5155 23.8218 40.6541 23.2638 40.9313 22.8919C41.2109 22.52 41.6361 22.334 42.207 22.334C42.7732 22.334 43.1949 22.5152 43.4721 22.8777C43.7517 23.2402 43.895 23.7827 43.9021 24.5052V25.4007ZM43.0386 24.4342C43.0386 23.9485 42.9723 23.5931 42.8396 23.3681C42.7069 23.1407 42.4961 23.0269 42.207 23.0269C41.9251 23.0269 41.7178 23.1347 41.5852 23.3503C41.4525 23.5635 41.3826 23.8976 41.3755 24.3524V25.5251C41.3755 26.0084 41.443 26.3685 41.5781 26.6054C41.7131 26.8423 41.9251 26.9608 42.2142 26.9608C42.4913 26.9608 42.6963 26.8518 42.8289 26.6338C42.9616 26.4135 43.0315 26.07 43.0386 25.6033V24.4342Z" fill="black"/>
<path d="M45.2418 26.6694C45.4029 26.6694 45.5273 26.7156 45.6149 26.808C45.7026 26.898 45.7464 27.0117 45.7464 27.1491C45.7464 27.2841 45.7026 27.3967 45.6149 27.4867C45.5273 27.5744 45.4029 27.6182 45.2418 27.6182C45.0878 27.6182 44.9658 27.5744 44.8758 27.4867C44.7858 27.399 44.7408 27.2865 44.7408 27.1491C44.7408 27.0117 44.7846 26.898 44.8722 26.808C44.9599 26.7156 45.0831 26.6694 45.2418 26.6694ZM45.2418 23.6524C45.4029 23.6524 45.5273 23.6986 45.6149 23.791C45.7026 23.881 45.7464 23.9947 45.7464 24.1321C45.7464 24.2671 45.7026 24.3797 45.6149 24.4697C45.5273 24.5573 45.4029 24.6012 45.2418 24.6012C45.0878 24.6012 44.9658 24.5573 44.8758 24.4697C44.7858 24.382 44.7408 24.2695 44.7408 24.1321C44.7408 23.9947 44.7846 23.881 44.8722 23.791C44.9599 23.6986 45.0831 23.6524 45.2418 23.6524Z" fill="black"/>
<path d="M49.9716 25.4007C49.9716 26.1446 49.8319 26.7061 49.5523 27.0851C49.2751 27.4618 48.8523 27.6502 48.2837 27.6502C47.7246 27.6502 47.3029 27.4666 47.0186 27.0994C46.7367 26.7298 46.5922 26.1837 46.5851 25.4611V24.5656C46.5851 23.8218 46.7237 23.2638 47.0008 22.8919C47.2804 22.52 47.7056 22.334 48.2766 22.334C48.8428 22.334 49.2645 22.5152 49.5417 22.8777C49.8212 23.2402 49.9645 23.7827 49.9716 24.5052V25.4007ZM49.1081 24.4342C49.1081 23.9485 49.0418 23.5931 48.9091 23.3681C48.7765 23.1407 48.5656 23.0269 48.2766 23.0269C47.9947 23.0269 47.7874 23.1347 47.6547 23.3503C47.522 23.5635 47.4521 23.8976 47.445 24.3524V25.5251C47.445 26.0084 47.5126 26.3685 47.6476 26.6054C47.7826 26.8423 47.9947 26.9608 48.2837 26.9608C48.5609 26.9608 48.7658 26.8518 48.8985 26.6338C49.0311 26.4135 49.101 26.07 49.1081 25.6033V24.4342Z" fill="black"/>
<path d="M54.108 25.4007C54.108 26.1446 53.9683 26.7061 53.6887 27.0851C53.4115 27.4618 52.9886 27.6502 52.4201 27.6502C51.861 27.6502 51.4393 27.4666 51.155 27.0994C50.8731 26.7298 50.7286 26.1837 50.7215 25.4611V24.5656C50.7215 23.8218 50.86 23.2638 51.1372 22.8919C51.4168 22.52 51.842 22.334 52.413 22.334C52.9792 22.334 53.4009 22.5152 53.678 22.8777C53.9576 23.2402 54.1009 23.7827 54.108 24.5052V25.4007ZM53.2445 24.4342C53.2445 23.9485 53.1782 23.5931 53.0455 23.3681C52.9128 23.1407 52.702 23.0269 52.413 23.0269C52.131 23.0269 51.9238 23.1347 51.7911 23.3503C51.6584 23.5635 51.5885 23.8976 51.5814 24.3524V25.5251C51.5814 26.0084 51.6489 26.3685 51.784 26.6054C51.919 26.8423 52.131 26.9608 52.4201 26.9608C52.6973 26.9608 52.9022 26.8518 53.0348 26.6338C53.1675 26.4135 53.2374 26.07 53.2445 25.6033V24.4342Z" fill="black"/>
<path d="M169.922 25.0134L170.203 22.4051H172.982V23.1513H170.921L170.779 24.388C171.018 24.2506 171.288 24.1819 171.589 24.1819C172.082 24.1819 172.464 24.3394 172.737 24.6545C173.011 24.9696 173.149 25.3936 173.149 25.9267C173.149 26.4526 172.997 26.8719 172.694 27.1846C172.391 27.495 171.975 27.6502 171.447 27.6502C170.973 27.6502 170.58 27.5163 170.267 27.2486C169.956 26.9785 169.788 26.6232 169.762 26.1825H170.597C170.63 26.4336 170.72 26.6267 170.867 26.7618C171.014 26.8944 171.206 26.9608 171.443 26.9608C171.708 26.9608 171.914 26.866 172.061 26.6765C172.211 26.487 172.285 26.2287 172.285 25.9018C172.285 25.5867 172.204 25.338 172.04 25.1555C171.877 24.9708 171.652 24.8784 171.365 24.8784C171.209 24.8784 171.076 24.8997 170.967 24.9423C170.858 24.9826 170.739 25.0631 170.612 25.184L169.922 25.0134Z" fill="black"/>
<path d="M177.932 26.9075C177.745 27.1515 177.485 27.3363 177.154 27.4618C176.822 27.5874 176.445 27.6502 176.024 27.6502C175.59 27.6502 175.206 27.5518 174.872 27.3552C174.538 27.1586 174.28 26.8778 174.098 26.513C173.918 26.1458 173.824 25.7182 173.817 25.2302V24.8251C173.817 24.0433 174.004 23.4332 174.378 22.995C174.753 22.5543 175.275 22.334 175.945 22.334C176.521 22.334 176.978 22.4761 177.317 22.7604C177.656 23.0447 177.86 23.4546 177.928 23.99H177.047C176.948 23.3669 176.586 23.0554 175.963 23.0554C175.56 23.0554 175.254 23.2011 175.043 23.4925C174.834 23.7815 174.727 24.2067 174.719 24.7682V25.1662C174.719 25.7253 174.837 26.16 175.071 26.4704C175.308 26.7783 175.636 26.9323 176.056 26.9323C176.515 26.9323 176.842 26.8281 177.036 26.6196V25.6068H175.97V24.9246H177.932V26.9075Z" fill="black"/>
<path d="M179.612 23.3306C180.261 22.6812 181.032 22.166 181.881 21.8146C182.729 21.4631 183.639 21.2822 184.557 21.2822C185.475 21.2822 186.385 21.4631 187.233 21.8146C188.082 22.166 188.853 22.6812 189.502 23.3306L184.557 28.2756L179.612 23.3306Z" fill="black"/>
<path d="M195.926 28.4407H188.839L196.021 21.3545L195.926 28.4407Z" fill="black"/>
<path d="M202.82 21.4502H201.096V22.0248H199.947C199.735 22.0248 199.564 22.1962 199.564 22.4078V28.1534C199.564 28.3649 199.735 28.5364 199.947 28.5364H203.777C203.989 28.5364 204.16 28.3649 204.16 28.1534V22.4078C204.16 22.1962 203.989 22.0248 203.777 22.0248H202.82V21.4502Z" fill="black"/>
<path d="M60.2346 54.0083H59.0434L54.5193 47.0833V54.0083H53.3281V45.0218H54.5193L59.0558 51.9777V45.0218H60.2346V54.0083Z" fill="#004C67"/>
<path d="M61.8579 50.6075C61.8579 49.9533 61.9854 49.3649 62.2405 48.8423C62.4998 48.3197 62.8577 47.9165 63.3145 47.6326C63.7753 47.3487 64.2999 47.2067 64.8883 47.2067C65.7977 47.2067 66.5322 47.5215 67.0918 48.151C67.6555 48.7806 67.9373 49.6179 67.9373 50.6631V50.7433C67.9373 51.3934 67.8118 51.9777 67.5608 52.4961C67.3139 53.0105 66.958 53.4117 66.4931 53.6997C66.0322 53.9877 65.5014 54.1317 64.9007 54.1317C63.9955 54.1317 63.261 53.817 62.6973 53.1874C62.1377 52.5579 61.8579 51.7246 61.8579 50.6877V50.6075ZM63.0059 50.7433C63.0059 51.4839 63.1766 52.0785 63.5181 52.527C63.8638 52.9755 64.3246 53.1998 64.9007 53.1998C65.4809 53.1998 65.9417 52.9735 66.2832 52.5208C66.6247 52.0641 66.7955 51.4263 66.7955 50.6075C66.7955 49.8751 66.6206 49.2826 66.2709 48.83C65.9252 48.3732 65.4644 48.1449 64.8883 48.1449C64.3246 48.1449 63.87 48.3691 63.5243 48.8176C63.1787 49.2661 63.0059 49.908 63.0059 50.7433Z" fill="#004C67"/>
<path d="M70.9184 45.7131V47.3302H72.1652V48.2128H70.9184V52.3542C70.9184 52.6216 70.974 52.8233 71.0851 52.959C71.1962 53.0907 71.3854 53.1566 71.6529 53.1566C71.7846 53.1566 71.9656 53.1319 72.196 53.0825V54.0083C71.8957 54.0906 71.6035 54.1317 71.3196 54.1317C70.8094 54.1317 70.4247 53.9774 70.1654 53.6688C69.9062 53.3602 69.7766 52.922 69.7766 52.3542V48.2128H68.5607V47.3302H69.7766V45.7131H70.9184Z" fill="#004C67"/>
<path d="M76.7325 48.3547C76.5597 48.3259 76.3724 48.3115 76.1708 48.3115C75.4219 48.3115 74.9138 48.6304 74.6463 49.2682V54.0083H73.5045V47.3302H74.6155L74.634 48.1017C75.0084 47.505 75.5392 47.2067 76.2264 47.2067C76.4486 47.2067 76.6173 47.2355 76.7325 47.2931V48.3547Z" fill="#004C67"/>
<path d="M81.9108 53.3479C81.4664 53.8705 80.8142 54.1317 79.9543 54.1317C79.2424 54.1317 78.6993 53.926 78.3249 53.5145C77.9545 53.0989 77.7673 52.4859 77.7632 51.6753V47.3302H78.905V51.6444C78.905 52.6566 79.3165 53.1627 80.1394 53.1627C81.0117 53.1627 81.5919 52.8377 81.8799 52.1875V47.3302H83.0218V54.0083H81.9355L81.9108 53.3479Z" fill="#004C67"/>
<path d="M85.3239 54.0083V48.2128H84.2685V47.3302H85.3239V46.6451C85.3239 45.9291 85.5153 45.3757 85.8979 44.9848C86.2806 44.5939 86.8217 44.3984 87.5212 44.3984C87.7845 44.3984 88.0458 44.4334 88.305 44.5034L88.2433 45.4292C88.0499 45.3921 87.8442 45.3736 87.6261 45.3736C87.2558 45.3736 86.9698 45.4827 86.7682 45.7007C86.5666 45.9147 86.4658 46.2233 86.4658 46.6265V47.3302H87.8915V48.2128H86.4658V54.0083H85.3239Z" fill="#004C67"/>
<path d="M21.8335 52.2844H32.1756V51.1353H21.8335V52.2844ZM21.8335 49.4116H32.1756V48.2624H21.8335V49.4116ZM21.8335 45.3896V46.5388H32.1756V45.3896H21.8335Z" fill="#004C67"/>
<rect x="32.1758" y="238.442" width="160.877" height="89.0568" rx="10" fill="#E80B1C"/>
<g clip-path="url(#clip1)">
<path fill-rule="evenodd" clip-rule="evenodd" d="M113.133 259.476C113.133 259.896 112.794 260.235 112.374 260.235C111.955 260.235 111.615 259.896 111.615 259.476V256.439C111.615 256.019 111.955 255.68 112.374 255.68C112.794 255.68 113.133 256.019 113.133 256.439V259.476ZM120.754 271.241V279.62C122.073 279.62 123.148 280.693 123.148 282.014V283.809C123.148 284.14 122.88 284.408 122.549 284.408H102.2C101.869 284.408 101.602 284.14 101.602 283.809V282.014C101.602 280.693 102.676 279.62 103.996 279.62V271.241C103.996 266.62 107.755 262.862 112.375 262.862C116.994 262.862 120.754 266.62 120.754 271.241ZM106.39 271.241C106.39 271.571 106.988 271.839 106.988 271.839L112.973 265.854C112.973 265.854 112.705 265.256 112.375 265.256C109.075 265.256 106.39 267.941 106.39 271.241ZM121.641 265.753C121.876 266.1 122.348 266.19 122.695 265.955L125.208 264.249C125.556 264.014 125.646 263.542 125.41 263.195C125.175 262.848 124.703 262.757 124.356 262.993L121.843 264.698C121.495 264.934 121.405 265.405 121.641 265.753ZM102.054 265.955C102.401 266.19 102.873 266.1 103.108 265.753C103.344 265.405 103.254 264.934 102.906 264.698L100.393 262.993C100.046 262.757 99.5743 262.848 99.3387 263.195C99.1031 263.542 99.1934 264.014 99.5407 264.249L102.054 265.955ZM107.093 261.938C107.481 261.777 107.665 261.334 107.504 260.946L106.343 258.14C106.183 257.752 105.739 257.568 105.351 257.728C104.963 257.889 104.779 258.332 104.94 258.72L106.101 261.526C106.262 261.914 106.705 262.098 107.093 261.938ZM117.245 260.946C117.084 261.334 117.268 261.777 117.656 261.938C118.044 262.098 118.487 261.914 118.648 261.526L119.809 258.72C119.969 258.332 119.785 257.889 119.398 257.728C119.01 257.568 118.566 257.752 118.406 258.14L117.245 260.946Z" fill="white"/>
</g>
<path d="M68.8659 306.24H66.341L61.4258 298.177V306.24H58.9009V293.986H61.4258L66.3494 302.066V293.986H68.8659V306.24Z" fill="white"/>
<path d="M70.5324 301.603C70.5324 300.699 70.7063 299.894 71.0542 299.187C71.402 298.48 71.9014 297.933 72.5523 297.546C73.2088 297.159 73.9691 296.965 74.8331 296.965C76.0619 296.965 77.0635 297.341 77.8378 298.093C78.6177 298.845 79.0526 299.866 79.1423 301.157L79.1592 301.779C79.1592 303.177 78.7692 304.299 77.9893 305.146C77.2094 305.988 76.1629 306.408 74.85 306.408C73.537 306.408 72.4878 305.988 71.7022 305.146C70.9223 304.304 70.5324 303.16 70.5324 301.712V301.603ZM72.9647 301.779C72.9647 302.643 73.1274 303.306 73.4528 303.766C73.7783 304.22 74.244 304.447 74.85 304.447C75.4391 304.447 75.8992 304.223 76.2303 303.774C76.5613 303.32 76.7268 302.596 76.7268 301.603C76.7268 300.755 76.5613 300.099 76.2303 299.633C75.8992 299.168 75.4335 298.935 74.8331 298.935C74.2384 298.935 73.7783 299.168 73.4528 299.633C73.1274 300.093 72.9647 300.809 72.9647 301.779Z" fill="white"/>
<path d="M83.5694 294.895V297.134H85.1264V298.918H83.5694V303.463C83.5694 303.799 83.6339 304.041 83.7629 304.186C83.892 304.332 84.1389 304.405 84.5036 304.405C84.7729 304.405 85.0114 304.386 85.219 304.346V306.19C84.7421 306.335 84.2511 306.408 83.7461 306.408C82.0404 306.408 81.1707 305.547 81.137 303.825V298.918H79.8072V297.134H81.137V294.895H83.5694Z" fill="white"/>
<path d="M91.5986 299.414C91.2676 299.369 90.9758 299.347 90.7233 299.347C89.8031 299.347 89.1999 299.658 88.9138 300.281V306.24H86.4814V297.134H88.7791L88.8465 298.219C89.3346 297.383 90.0107 296.965 90.8748 296.965C91.1441 296.965 91.3966 297.002 91.6323 297.075L91.5986 299.414Z" fill="white"/>
<path d="M98.2308 305.314C97.6304 306.044 96.8 306.408 95.7395 306.408C94.7632 306.408 94.0169 306.128 93.5007 305.567C92.9901 305.006 92.7292 304.184 92.718 303.101V297.134H95.1503V303.017C95.1503 303.965 95.5824 304.439 96.4465 304.439C97.2713 304.439 97.838 304.153 98.1466 303.581V297.134H100.587V306.24H98.2981L98.2308 305.314Z" fill="white"/>
<path d="M103.087 306.24V298.918H101.732V297.134H103.087V296.359C103.087 295.338 103.379 294.547 103.962 293.986C104.551 293.419 105.373 293.136 106.428 293.136C106.765 293.136 107.177 293.192 107.666 293.304L107.64 295.189C107.438 295.139 107.191 295.114 106.9 295.114C105.985 295.114 105.528 295.543 105.528 296.401V297.134H107.337V298.918H105.528V306.24H103.087Z" fill="white"/>
<path d="M117.824 303.724C117.824 303.426 117.675 303.193 117.378 303.025C117.086 302.851 116.615 302.697 115.964 302.562C113.798 302.108 112.715 301.187 112.715 299.802C112.715 298.994 113.049 298.32 113.717 297.782C114.39 297.237 115.268 296.965 116.351 296.965C117.507 296.965 118.43 297.237 119.12 297.782C119.816 298.326 120.164 299.033 120.164 299.903H117.732C117.732 299.555 117.619 299.268 117.395 299.044C117.17 298.814 116.82 298.699 116.343 298.699C115.933 298.699 115.616 298.792 115.392 298.977C115.167 299.162 115.055 299.398 115.055 299.684C115.055 299.953 115.181 300.172 115.434 300.34C115.692 300.503 116.124 300.646 116.73 300.769C117.336 300.887 117.847 301.022 118.262 301.173C119.547 301.645 120.189 302.461 120.189 303.623C120.189 304.453 119.833 305.126 119.12 305.643C118.408 306.153 117.487 306.408 116.36 306.408C115.597 306.408 114.918 306.274 114.323 306.004C113.734 305.729 113.271 305.356 112.934 304.885C112.598 304.408 112.429 303.895 112.429 303.345H114.735C114.758 303.777 114.918 304.108 115.215 304.338C115.512 304.568 115.911 304.683 116.41 304.683C116.876 304.683 117.227 304.596 117.462 304.422C117.704 304.243 117.824 304.01 117.824 303.724Z" fill="white"/>
<path d="M124.675 294.895V297.134H126.232V298.918H124.675V303.463C124.675 303.799 124.74 304.041 124.869 304.186C124.998 304.332 125.245 304.405 125.609 304.405C125.879 304.405 126.117 304.386 126.325 304.346V306.19C125.848 306.335 125.357 306.408 124.852 306.408C123.146 306.408 122.276 305.547 122.243 303.825V298.918H120.913V297.134H122.243V294.895H124.675Z" fill="white"/>
<path d="M132.864 306.24C132.752 306.021 132.671 305.749 132.62 305.424C132.031 306.08 131.265 306.408 130.323 306.408C129.43 306.408 128.69 306.15 128.101 305.634C127.517 305.118 127.225 304.467 127.225 303.682C127.225 302.716 127.582 301.976 128.294 301.46C129.012 300.943 130.048 300.682 131.4 300.677H132.519V300.155C132.519 299.734 132.41 299.398 132.191 299.145C131.978 298.893 131.638 298.766 131.173 298.766C130.763 298.766 130.44 298.865 130.205 299.061C129.975 299.257 129.86 299.527 129.86 299.869H127.427C127.427 299.341 127.59 298.853 127.915 298.404C128.241 297.956 128.701 297.605 129.296 297.352C129.89 297.094 130.558 296.965 131.299 296.965C132.421 296.965 133.31 297.249 133.967 297.815C134.629 298.376 134.96 299.168 134.96 300.189V304.136C134.966 305 135.086 305.654 135.322 306.097V306.24H132.864ZM130.853 304.548C131.212 304.548 131.543 304.47 131.846 304.313C132.149 304.15 132.373 303.934 132.519 303.665V302.099H131.61C130.393 302.099 129.745 302.52 129.666 303.362L129.658 303.505C129.658 303.808 129.764 304.057 129.977 304.254C130.191 304.45 130.482 304.548 130.853 304.548Z" fill="white"/>
<path d="M141.946 299.414C141.615 299.369 141.323 299.347 141.07 299.347C140.15 299.347 139.547 299.658 139.261 300.281V306.24H136.828V297.134H139.126L139.193 298.219C139.682 297.383 140.358 296.965 141.222 296.965C141.491 296.965 141.744 297.002 141.979 297.075L141.946 299.414Z" fill="white"/>
<path d="M146.457 294.895V297.134H148.014V298.918H146.457V303.463C146.457 303.799 146.521 304.041 146.65 304.186C146.779 304.332 147.026 304.405 147.391 304.405C147.66 304.405 147.899 304.386 148.106 304.346V306.19C147.629 306.335 147.138 306.408 146.634 306.408C144.928 306.408 144.058 305.547 144.024 303.825V298.918H142.695V297.134H144.024V294.895H146.457Z" fill="white"/>
<path d="M153.56 306.408C152.225 306.408 151.136 305.999 150.295 305.18C149.459 304.36 149.041 303.269 149.041 301.906V301.67C149.041 300.755 149.217 299.939 149.571 299.221C149.924 298.497 150.424 297.942 151.069 297.554C151.72 297.162 152.46 296.965 153.291 296.965C154.537 296.965 155.516 297.358 156.228 298.144C156.946 298.929 157.306 300.043 157.306 301.485V302.478H151.507C151.585 303.073 151.821 303.55 152.214 303.909C152.612 304.268 153.114 304.447 153.72 304.447C154.657 304.447 155.389 304.108 155.917 303.429L157.112 304.767C156.747 305.283 156.253 305.687 155.631 305.979C155.008 306.265 154.318 306.408 153.56 306.408ZM153.282 298.935C152.8 298.935 152.407 299.097 152.104 299.423C151.807 299.748 151.616 300.214 151.532 300.82H154.915V300.626C154.904 300.088 154.758 299.672 154.478 299.381C154.197 299.083 153.799 298.935 153.282 298.935Z" fill="white"/>
<path d="M160.933 297.134L161.009 298.186C161.66 297.372 162.532 296.965 163.626 296.965C164.591 296.965 165.31 297.249 165.781 297.815C166.252 298.382 166.493 299.229 166.505 300.357V306.24H164.072V300.416C164.072 299.9 163.96 299.527 163.736 299.297C163.511 299.061 163.138 298.943 162.616 298.943C161.932 298.943 161.418 299.235 161.076 299.818V306.24H158.644V297.134H160.933Z" fill="white"/>
<path d="M61.9427 132.315C63.6302 134.133 64.4751 136.666 64.4751 139.915V164.477H56.2668V141.197C56.2668 139.188 55.9147 137.777 55.2081 136.965C54.5039 136.153 53.4653 135.745 52.0972 135.745C50.6864 135.745 49.4139 136.185 48.2823 137.06C47.1481 137.938 46.0491 139.208 44.9803 140.875V164.474H36.772V130.552H43.8914L44.5327 134.976C47.3116 131.384 50.7518 129.589 54.856 129.589C57.8914 129.589 60.2528 130.497 61.9427 132.315Z" fill="#001922"/>
<path d="M133.124 128.844V136.544C132.098 136.288 126.903 136.813 123.955 140.822C122.864 142.303 121.881 144.194 121.199 147.144V164.474H112.991V130.551H120.11L120.88 137.221C121.692 134.784 123.382 132.591 124.911 131.359C127.489 129.274 131.449 128.763 133.124 128.844Z" fill="#001922"/>
<path d="M159.935 158.413C159.527 157.795 159.326 156.821 159.326 155.496V141.26C159.326 140.475 159.278 139.723 159.19 139.004C158.919 136.839 158.68 135.367 157.324 133.761C156.404 132.438 155.172 131.432 153.633 130.808C148.424 128.2 138.71 128.774 137.173 128.847V136.295C137.845 136.127 140.684 135.606 144.288 135.76C145.412 135.808 146.335 135.903 147.112 136.059C147.504 136.147 147.859 136.24 148.165 136.338C149.031 136.64 149.654 137.075 150.145 137.681C150.265 137.842 150.373 138.013 150.474 138.194C151.037 139.399 150.856 141.516 150.957 143.636H147.014C142.054 143.636 138.237 144.609 135.566 146.553C132.893 148.5 131.558 151.309 131.558 154.986C131.558 158.106 132.541 160.629 134.507 162.553C136.474 164.476 139.145 165.44 142.525 165.44C144.662 165.44 146.596 165.022 148.329 164.19C150.062 163.357 151.503 162.085 152.657 160.375C153.298 161.957 154.229 163.131 155.446 163.903C156.665 164.673 158.235 165.143 160.159 165.314L161.889 159.862C160.993 159.515 160.34 159.034 159.935 158.413ZM151.246 155.305C149.664 158.084 147.484 159.474 144.705 159.474C143.123 159.474 141.926 159.024 141.114 158.127C140.302 157.229 139.897 155.969 139.897 154.344C139.897 150.411 142.547 148.444 147.849 148.444H151.246V155.305V155.305Z" fill="#001922"/>
<path d="M121.184 181.102H118.433L114.618 172.104C114.713 172.899 114.786 173.618 114.834 174.262C114.882 174.905 114.907 175.672 114.907 176.563V181.102H112.976V169.981H115.664L119.542 178.995C119.476 178.564 119.414 177.999 119.348 177.297C119.283 176.595 119.253 175.894 119.253 175.197V169.981H121.184V181.102V181.102Z" fill="#004C67"/>
<path d="M129.898 173.548C130.6 174.347 130.952 175.444 130.952 176.84C130.952 177.73 130.791 178.517 130.469 179.198C130.147 179.88 129.684 180.408 129.086 180.783C128.485 181.157 127.77 181.346 126.946 181.346C125.691 181.346 124.707 180.946 124.001 180.147C123.292 179.347 122.939 178.245 122.939 176.84C122.939 175.949 123.1 175.165 123.422 174.491C123.744 173.814 124.207 173.289 124.815 172.914C125.422 172.539 126.138 172.351 126.963 172.351C128.218 172.348 129.196 172.748 129.898 173.548ZM125.11 176.837C125.11 177.845 125.263 178.59 125.567 179.065C125.874 179.543 126.332 179.782 126.943 179.782C127.554 179.782 128.014 179.54 128.319 179.058C128.623 178.575 128.776 177.835 128.776 176.837C128.776 175.839 128.623 175.102 128.319 174.624C128.012 174.146 127.559 173.907 126.958 173.907C125.728 173.91 125.11 174.886 125.11 176.837Z" fill="#004C67"/>
<path d="M137.762 180.703C137.46 180.916 137.125 181.077 136.756 181.185C136.386 181.294 136.006 181.346 135.621 181.346C134.784 181.336 134.148 181.097 133.715 180.63C133.28 180.162 133.064 179.473 133.064 178.563V174.071H131.729V172.59H133.064V170.706L135.124 170.465V172.59H137.103L136.894 174.071H135.124V178.512C135.124 178.93 135.196 179.231 135.34 179.413C135.486 179.596 135.712 179.687 136.024 179.687C136.336 179.687 136.673 179.584 137.037 179.38L137.762 180.703Z" fill="#004C67"/>
<path d="M143.973 172.477L143.619 174.474C143.362 174.408 143.108 174.378 142.862 174.378C142.356 174.378 141.961 174.557 141.67 174.916C141.378 175.276 141.149 175.827 140.978 176.566V181.105H138.918V172.59H140.704L140.898 174.265C141.101 173.654 141.396 173.184 141.783 172.857C142.17 172.53 142.615 172.366 143.118 172.366C143.433 172.364 143.717 172.402 143.973 172.477Z" fill="#004C67"/>
<path d="M151.908 181.102H150.122L150.009 179.91C149.697 180.393 149.33 180.753 148.907 180.989C148.482 181.226 147.982 181.344 147.403 181.344C146.642 181.344 146.053 181.11 145.641 180.645C145.228 180.177 145.022 179.531 145.022 178.706V172.59H147.082V178.449C147.082 178.932 147.165 179.277 147.331 179.48C147.497 179.684 147.763 179.787 148.128 179.787C148.782 179.787 149.355 179.385 149.85 178.58V172.592H151.91V181.102H151.908Z" fill="#004C67"/>
<path d="M156.954 170.794C156.778 170.983 156.688 171.279 156.688 171.687V172.587H158.732L158.506 174.068H156.688V181.102H154.628V174.068H153.245V172.587H154.628V171.654C154.628 170.849 154.887 170.198 155.408 169.698C155.928 169.2 156.665 168.948 157.621 168.948C158.373 168.948 159.107 169.114 159.826 169.446L159.23 170.829C158.77 170.616 158.302 170.507 157.83 170.507C157.422 170.512 157.13 170.608 156.954 170.794Z" fill="#004C67"/>
<path d="M159.248 176.887V175.245H164.109V176.887H159.248Z" fill="#004C67"/>
<path d="M171.963 181.102L171.271 178.527H167.585L166.893 181.102H164.688L168.148 169.981H170.771L174.216 181.102H171.963ZM168.002 176.92H170.834L169.418 171.609L168.002 176.92Z" fill="#004C67"/>
<path d="M182.022 173.523C182.538 174.308 182.795 175.407 182.795 176.822C182.795 177.703 182.664 178.482 182.4 179.164C182.136 179.845 181.751 180.378 181.24 180.766C180.73 181.153 180.126 181.344 179.43 181.344C178.529 181.344 177.815 181.032 177.29 180.411V184.387L175.23 184.613V172.59H177.033L177.146 173.636C177.478 173.206 177.86 172.884 178.288 172.671C178.718 172.457 179.168 172.349 179.641 172.349C180.712 172.349 181.507 172.741 182.022 173.523ZM180.637 176.838C180.637 175.796 180.504 175.047 180.234 174.584C179.965 174.124 179.563 173.893 179.027 173.893C178.683 173.893 178.361 173.998 178.062 174.207C177.76 174.416 177.503 174.697 177.29 175.052V178.882C177.687 179.473 178.208 179.767 178.851 179.767C180.041 179.767 180.637 178.792 180.637 176.838Z" fill="#004C67"/>
<path d="M191.131 173.523C191.646 174.308 191.903 175.407 191.903 176.822C191.903 177.703 191.772 178.482 191.508 179.164C191.244 179.845 190.859 180.378 190.349 180.766C189.838 181.153 189.235 181.344 188.538 181.344C187.638 181.344 186.924 181.032 186.398 180.411V184.387L184.338 184.613V172.59H186.142L186.255 173.636C186.587 173.206 186.969 172.884 187.396 172.671C187.826 172.457 188.277 172.349 188.749 172.349C189.821 172.349 190.615 172.741 191.131 173.523ZM189.748 176.838C189.748 175.796 189.614 175.047 189.345 174.584C189.076 174.124 188.674 173.893 188.138 173.893C187.794 173.893 187.472 173.998 187.173 174.207C186.871 174.416 186.614 174.697 186.401 175.052V178.882C186.798 179.473 187.318 179.767 187.962 179.767C189.152 179.767 189.748 178.792 189.748 176.838Z" fill="#004C67"/>
<path d="M78.5077 160.586C74.6323 157.546 72.1326 152.823 72.1326 147.527C72.1326 138.375 79.579 130.929 88.7304 130.929C97.8818 130.929 105.328 138.375 105.328 147.527C105.328 152.26 103.334 156.532 100.145 159.56C100.168 159.575 100.19 159.588 100.213 159.6C100.839 159.721 101.48 159.895 102.127 160.116C103.077 160.443 103.95 160.85 104.722 161.308C107.916 157.606 109.855 152.79 109.855 147.527C109.855 135.878 100.379 126.402 88.7304 126.402C77.0818 126.402 67.606 135.878 67.606 147.527C67.606 154.09 70.6162 159.965 75.3264 163.843C75.8772 162.359 77.0415 161.17 78.5077 160.586Z" fill="#BA0916"/>
<path d="M101.375 163.634C100.362 163.634 99.6399 164.336 99.4085 165.279V164.142C99.4085 162.953 98.4428 161.987 97.2533 161.987C96.2398 161.987 95.3898 162.689 95.161 163.632V162.875C95.161 161.685 94.1953 160.719 93.0058 160.719C92.1809 160.719 91.4667 161.182 91.1046 161.861V147.574C91.1046 146.259 90.0358 145.19 88.7206 145.19C87.4053 145.19 86.3365 146.259 86.3365 147.574V170.494C86.3365 170.494 82.4084 164.477 82.1066 164.064C81.8048 163.652 81.156 163.466 80.56 163.466C79.2875 163.466 78.2539 164.497 78.2539 165.772C78.2539 166.063 78.2615 166.295 78.4098 166.599C78.5582 166.903 83.7588 177.609 84.4353 179.067C86.4019 183.307 89.807 185.106 93.0838 185.106C98.8879 185.106 102.728 179.948 103.125 174.309C103.279 172.537 103.405 167.389 103.405 165.794C103.405 164.6 102.565 163.634 101.375 163.634Z" fill="#004C67"/>
<path d="M83.0671 157.752V151.91C82.1266 150.698 81.5633 149.177 81.5633 147.527C81.5633 143.576 84.7797 140.36 88.7305 140.36C92.6813 140.36 95.8977 143.576 95.8977 147.527C95.8977 149.192 95.3269 150.723 94.3712 151.94V157.624C94.4266 157.639 94.4819 157.657 94.5347 157.672C98.0504 155.652 100.424 151.862 100.424 147.527C100.424 141.079 95.1785 135.833 88.7305 135.833C82.2825 135.833 77.0366 141.079 77.0366 147.527C77.0391 151.92 79.476 155.755 83.0671 157.752Z" fill="#BA0916"/>
</g>
<path fill-rule="evenodd" clip-rule="evenodd" d="M29.1651 0C13.0577 0 0 13.0577 0 29.1651V441.835C0 457.942 13.0577 471 29.1651 471H199.798C215.905 471 228.963 457.942 228.963 441.835V243.009C229.728 242.854 230.304 242.177 230.304 241.367V180.019C230.304 179.208 229.728 178.532 228.963 178.377V145.155C229.889 145.155 230.639 144.405 230.639 143.479V114.649C230.639 113.723 229.889 112.973 228.963 112.973V29.1651C228.963 13.0577 215.905 0 199.798 0H29.1651ZM28.83 11.3978C18.8322 11.3978 10.7275 19.5026 10.7275 29.5003V441.835C10.7275 451.832 18.8322 459.937 28.83 459.937H199.463C209.46 459.937 217.565 451.832 217.565 441.835V29.5003C217.565 19.5026 209.46 11.3978 199.463 11.3978H28.83Z" fill="#004C67"/>
<defs>
<filter id="filter0_d" x="6.91699" y="31.0264" width="214.842" height="40.1754" filterUnits="userSpaceOnUse" color-interpolation-filters="sRGB">
<feFlood flood-opacity="0" result="BackgroundImageFix"/>
<feColorMatrix in="SourceAlpha" type="matrix" values="0 0 0 0 0 0 0 0 0 0 0 0 0 0 0 0 0 0 127 0"/>
<feOffset dy="4"/>
<feGaussianBlur stdDeviation="2"/>
<feColorMatrix type="matrix" values="0 0 0 0 0 0 0 0 0 0 0 0 0 0 0 0 0 0 0.25 0"/>
<feBlend mode="normal" in2="BackgroundImageFix" result="effect1_dropShadow"/>
<feBlend mode="normal" in="SourceGraphic" in2="effect1_dropShadow" result="shape"/>
</filter>
<clipPath id="clip0">
<rect width="206.842" height="448.157" fill="white" transform="translate(10.917 11.4912)"/>
</clipPath>
<clipPath id="clip1">
<rect width="28.728" height="28.728" fill="white" transform="translate(98.25 255.68)"/>
</clipPath>
</defs>
</svg>
